<mxfile host="app.diagrams.net" modified="2020-12-04T09:36:23.825Z" agent="5.0 (Macintosh; Intel Mac OS X 10_14_6) AppleWebKit/537.36 (KHTML, like Gecko) Chrome/86.0.4240.198 Safari/537.36" etag="AnPe_LNHP6SpZA39o9L7" version="13.10.1" type="github">
  <diagram id="ElEE-zMoF9M7DW4CkVsI" name="Page-1">
    <mxGraphModel dx="849" dy="294" grid="0" gridSize="10" guides="1" tooltips="1" connect="1" arrows="1" fold="1" page="0" pageScale="1" pageWidth="827" pageHeight="1169" math="0" shadow="0">
      <root>
        <mxCell id="0" />
        <mxCell id="1" parent="0" />
        <mxCell id="Dh_F9QHYfQC5R3xI3WFD-2" style="edgeStyle=orthogonalEdgeStyle;rounded=0;orthogonalLoop=1;jettySize=auto;html=1;exitX=0.5;exitY=1;exitDx=0;exitDy=0;" edge="1" parent="1" source="Dh_F9QHYfQC5R3xI3WFD-1">
          <mxGeometry relative="1" as="geometry">
            <mxPoint x="310" y="170" as="targetPoint" />
          </mxGeometry>
        </mxCell>
        <mxCell id="Dh_F9QHYfQC5R3xI3WFD-1" value="&lt;font style=&quot;font-size: 16px&quot;&gt;调度器&lt;/font&gt;" style="rounded=1;whiteSpace=wrap;html=1;" vertex="1" parent="1">
          <mxGeometry x="250" y="80" width="120" height="60" as="geometry" />
        </mxCell>
        <mxCell id="Dh_F9QHYfQC5R3xI3WFD-4" style="edgeStyle=orthogonalEdgeStyle;rounded=0;orthogonalLoop=1;jettySize=auto;html=1;exitX=0.5;exitY=1;exitDx=0;exitDy=0;" edge="1" parent="1" source="Dh_F9QHYfQC5R3xI3WFD-3">
          <mxGeometry relative="1" as="geometry">
            <mxPoint x="310" y="260" as="targetPoint" />
          </mxGeometry>
        </mxCell>
        <mxCell id="Dh_F9QHYfQC5R3xI3WFD-3" value="&lt;font style=&quot;font-size: 16px&quot;&gt;计算大中小点数据量&lt;/font&gt;" style="rounded=1;whiteSpace=wrap;html=1;" vertex="1" parent="1">
          <mxGeometry x="250" y="170" width="120" height="60" as="geometry" />
        </mxCell>
        <mxCell id="Dh_F9QHYfQC5R3xI3WFD-6" style="edgeStyle=orthogonalEdgeStyle;rounded=0;orthogonalLoop=1;jettySize=auto;html=1;" edge="1" parent="1" source="Dh_F9QHYfQC5R3xI3WFD-5" target="Dh_F9QHYfQC5R3xI3WFD-7">
          <mxGeometry relative="1" as="geometry">
            <mxPoint x="310" y="360" as="targetPoint" />
          </mxGeometry>
        </mxCell>
        <mxCell id="Dh_F9QHYfQC5R3xI3WFD-5" value="计算内存分配，创建stream" style="rounded=1;whiteSpace=wrap;html=1;" vertex="1" parent="1">
          <mxGeometry x="250" y="260" width="120" height="60" as="geometry" />
        </mxCell>
        <mxCell id="Dh_F9QHYfQC5R3xI3WFD-8" style="edgeStyle=orthogonalEdgeStyle;rounded=0;orthogonalLoop=1;jettySize=auto;html=1;" edge="1" parent="1" source="Dh_F9QHYfQC5R3xI3WFD-7">
          <mxGeometry relative="1" as="geometry">
            <mxPoint x="310" y="440" as="targetPoint" />
          </mxGeometry>
        </mxCell>
        <mxCell id="Dh_F9QHYfQC5R3xI3WFD-7" value="创建worker" style="rounded=1;whiteSpace=wrap;html=1;" vertex="1" parent="1">
          <mxGeometry x="250" y="350" width="120" height="60" as="geometry" />
        </mxCell>
        <mxCell id="Dh_F9QHYfQC5R3xI3WFD-10" style="edgeStyle=orthogonalEdgeStyle;rounded=0;orthogonalLoop=1;jettySize=auto;html=1;entryX=0;entryY=0.5;entryDx=0;entryDy=0;exitX=0;exitY=0.5;exitDx=0;exitDy=0;" edge="1" parent="1" source="Dh_F9QHYfQC5R3xI3WFD-9" target="Dh_F9QHYfQC5R3xI3WFD-3">
          <mxGeometry relative="1" as="geometry">
            <mxPoint x="180" y="180" as="targetPoint" />
            <Array as="points">
              <mxPoint x="230" y="480" />
              <mxPoint x="230" y="200" />
            </Array>
          </mxGeometry>
        </mxCell>
        <mxCell id="Dh_F9QHYfQC5R3xI3WFD-12" style="edgeStyle=orthogonalEdgeStyle;rounded=0;orthogonalLoop=1;jettySize=auto;html=1;exitX=0.5;exitY=1;exitDx=0;exitDy=0;" edge="1" parent="1" source="Dh_F9QHYfQC5R3xI3WFD-9">
          <mxGeometry relative="1" as="geometry">
            <mxPoint x="310" y="540" as="targetPoint" />
          </mxGeometry>
        </mxCell>
        <mxCell id="Dh_F9QHYfQC5R3xI3WFD-9" value="&lt;font style=&quot;font-size: 11px&quot;&gt;&amp;nbsp; &amp;nbsp; &amp;nbsp; &amp;nbsp; 请求状态器状态，&lt;br&gt;剩余任务？&lt;/font&gt;" style="rhombus;whiteSpace=wrap;html=1;" vertex="1" parent="1">
          <mxGeometry x="230" y="440" width="160" height="80" as="geometry" />
        </mxCell>
        <mxCell id="Dh_F9QHYfQC5R3xI3WFD-11" value="YES" style="text;html=1;strokeColor=none;fillColor=none;align=center;verticalAlign=middle;whiteSpace=wrap;rounded=0;" vertex="1" parent="1">
          <mxGeometry x="180" y="370" width="40" height="20" as="geometry" />
        </mxCell>
        <mxCell id="Dh_F9QHYfQC5R3xI3WFD-13" value="结束" style="ellipse;whiteSpace=wrap;html=1;" vertex="1" parent="1">
          <mxGeometry x="250" y="540" width="120" height="80" as="geometry" />
        </mxCell>
        <mxCell id="Dh_F9QHYfQC5R3xI3WFD-16" value="NO" style="text;html=1;strokeColor=none;fillColor=none;align=center;verticalAlign=middle;whiteSpace=wrap;rounded=0;" vertex="1" parent="1">
          <mxGeometry x="350" y="520" width="40" height="20" as="geometry" />
        </mxCell>
        <mxCell id="Dh_F9QHYfQC5R3xI3WFD-17" value="&lt;font style=&quot;font-size: 16px&quot;&gt;CMS&lt;/font&gt;" style="rounded=1;whiteSpace=wrap;html=1;fillColor=#647687;strokeColor=#314354;fontColor=#ffffff;" vertex="1" parent="1">
          <mxGeometry x="294" y="760" width="120" height="60" as="geometry" />
        </mxCell>
        <mxCell id="Dh_F9QHYfQC5R3xI3WFD-22" value="" style="shape=singleArrow;direction=south;whiteSpace=wrap;html=1;" vertex="1" parent="1">
          <mxGeometry x="340" y="830" width="10" height="20" as="geometry" />
        </mxCell>
        <mxCell id="Dh_F9QHYfQC5R3xI3WFD-23" value="MFL" style="text;html=1;strokeColor=none;fillColor=none;align=center;verticalAlign=middle;whiteSpace=wrap;rounded=0;" vertex="1" parent="1">
          <mxGeometry x="354" y="830" width="40" height="20" as="geometry" />
        </mxCell>
        <mxCell id="Dh_F9QHYfQC5R3xI3WFD-25" style="edgeStyle=orthogonalEdgeStyle;rounded=0;orthogonalLoop=1;jettySize=auto;html=1;" edge="1" parent="1" source="Dh_F9QHYfQC5R3xI3WFD-24">
          <mxGeometry relative="1" as="geometry">
            <mxPoint x="310" y="760" as="targetPoint" />
          </mxGeometry>
        </mxCell>
        <mxCell id="Dh_F9QHYfQC5R3xI3WFD-24" value="t&lt;sub&gt;0&lt;/sub&gt;" style="ellipse;whiteSpace=wrap;html=1;" vertex="1" parent="1">
          <mxGeometry x="300" y="720" width="20" height="20" as="geometry" />
        </mxCell>
        <mxCell id="Dh_F9QHYfQC5R3xI3WFD-27" value="&lt;p&gt;L&lt;sub&gt;0&lt;/sub&gt;&lt;/p&gt;" style="text;html=1;strokeColor=none;fillColor=none;align=center;verticalAlign=middle;whiteSpace=wrap;rounded=0;" vertex="1" parent="1">
          <mxGeometry x="310" y="740" width="30" height="20" as="geometry" />
        </mxCell>
        <mxCell id="Dh_F9QHYfQC5R3xI3WFD-39" style="edgeStyle=orthogonalEdgeStyle;rounded=0;orthogonalLoop=1;jettySize=auto;html=1;" edge="1" parent="1" source="Dh_F9QHYfQC5R3xI3WFD-40">
          <mxGeometry relative="1" as="geometry">
            <mxPoint x="404" y="760" as="targetPoint" />
          </mxGeometry>
        </mxCell>
        <mxCell id="Dh_F9QHYfQC5R3xI3WFD-40" value="t&lt;span style=&quot;font-size: 10px&quot;&gt;2&lt;/span&gt;" style="ellipse;whiteSpace=wrap;html=1;" vertex="1" parent="1">
          <mxGeometry x="394" y="720" width="20" height="20" as="geometry" />
        </mxCell>
        <mxCell id="Dh_F9QHYfQC5R3xI3WFD-41" value="&lt;p&gt;L&lt;span style=&quot;font-size: 10px&quot;&gt;2&lt;/span&gt;&lt;/p&gt;" style="text;html=1;strokeColor=none;fillColor=none;align=center;verticalAlign=middle;whiteSpace=wrap;rounded=0;" vertex="1" parent="1">
          <mxGeometry x="404" y="740" width="30" height="20" as="geometry" />
        </mxCell>
        <mxCell id="Dh_F9QHYfQC5R3xI3WFD-42" style="edgeStyle=orthogonalEdgeStyle;rounded=0;orthogonalLoop=1;jettySize=auto;html=1;" edge="1" parent="1" source="Dh_F9QHYfQC5R3xI3WFD-43">
          <mxGeometry relative="1" as="geometry">
            <mxPoint x="360" y="760" as="targetPoint" />
          </mxGeometry>
        </mxCell>
        <mxCell id="Dh_F9QHYfQC5R3xI3WFD-43" value="t&lt;span style=&quot;font-size: 10px&quot;&gt;1&lt;/span&gt;" style="ellipse;whiteSpace=wrap;html=1;" vertex="1" parent="1">
          <mxGeometry x="350" y="720" width="20" height="20" as="geometry" />
        </mxCell>
        <mxCell id="Dh_F9QHYfQC5R3xI3WFD-44" value="&lt;p&gt;L&lt;span style=&quot;font-size: 10px&quot;&gt;1&lt;/span&gt;&lt;/p&gt;" style="text;html=1;strokeColor=none;fillColor=none;align=center;verticalAlign=middle;whiteSpace=wrap;rounded=0;" vertex="1" parent="1">
          <mxGeometry x="360" y="740" width="30" height="20" as="geometry" />
        </mxCell>
        <mxCell id="Dh_F9QHYfQC5R3xI3WFD-53" style="edgeStyle=orthogonalEdgeStyle;rounded=0;orthogonalLoop=1;jettySize=auto;html=1;" edge="1" parent="1" source="Dh_F9QHYfQC5R3xI3WFD-50" target="Dh_F9QHYfQC5R3xI3WFD-55">
          <mxGeometry relative="1" as="geometry">
            <mxPoint x="550" y="160" as="targetPoint" />
            <Array as="points">
              <mxPoint x="545" y="150" />
              <mxPoint x="545" y="150" />
            </Array>
          </mxGeometry>
        </mxCell>
        <mxCell id="Dh_F9QHYfQC5R3xI3WFD-50" value="插入HT" style="rounded=1;whiteSpace=wrap;html=1;" vertex="1" parent="1">
          <mxGeometry x="490" y="90" width="120" height="50" as="geometry" />
        </mxCell>
        <mxCell id="Dh_F9QHYfQC5R3xI3WFD-52" style="edgeStyle=orthogonalEdgeStyle;rounded=0;orthogonalLoop=1;jettySize=auto;html=1;entryX=0.458;entryY=0;entryDx=0;entryDy=0;entryPerimeter=0;" edge="1" parent="1" source="Dh_F9QHYfQC5R3xI3WFD-51" target="Dh_F9QHYfQC5R3xI3WFD-50">
          <mxGeometry relative="1" as="geometry" />
        </mxCell>
        <mxCell id="Dh_F9QHYfQC5R3xI3WFD-51" value="item" style="ellipse;whiteSpace=wrap;html=1;" vertex="1" parent="1">
          <mxGeometry x="500" y="10" width="90" height="50" as="geometry" />
        </mxCell>
        <mxCell id="Dh_F9QHYfQC5R3xI3WFD-80" style="edgeStyle=orthogonalEdgeStyle;rounded=0;orthogonalLoop=1;jettySize=auto;html=1;exitX=0.5;exitY=1;exitDx=0;exitDy=0;entryX=0.591;entryY=-0.06;entryDx=0;entryDy=0;entryPerimeter=0;" edge="1" parent="1" source="Dh_F9QHYfQC5R3xI3WFD-55" target="Dh_F9QHYfQC5R3xI3WFD-60">
          <mxGeometry relative="1" as="geometry" />
        </mxCell>
        <mxCell id="Dh_F9QHYfQC5R3xI3WFD-92" style="edgeStyle=orthogonalEdgeStyle;rounded=0;orthogonalLoop=1;jettySize=auto;html=1;exitX=1;exitY=0.5;exitDx=0;exitDy=0;" edge="1" parent="1" source="Dh_F9QHYfQC5R3xI3WFD-55">
          <mxGeometry relative="1" as="geometry">
            <mxPoint x="630" y="205.33333333333337" as="targetPoint" />
          </mxGeometry>
        </mxCell>
        <mxCell id="Dh_F9QHYfQC5R3xI3WFD-55" value="哈希冲突？" style="rhombus;whiteSpace=wrap;html=1;" vertex="1" parent="1">
          <mxGeometry x="500" y="170" width="90" height="70" as="geometry" />
        </mxCell>
        <mxCell id="Dh_F9QHYfQC5R3xI3WFD-62" value="" style="edgeStyle=orthogonalEdgeStyle;rounded=0;orthogonalLoop=1;jettySize=auto;html=1;" edge="1" parent="1" source="Dh_F9QHYfQC5R3xI3WFD-59" target="Dh_F9QHYfQC5R3xI3WFD-61">
          <mxGeometry relative="1" as="geometry" />
        </mxCell>
        <mxCell id="Dh_F9QHYfQC5R3xI3WFD-59" value="插入CMS" style="rounded=1;whiteSpace=wrap;html=1;" vertex="1" parent="1">
          <mxGeometry x="763" y="175" width="80" height="60" as="geometry" />
        </mxCell>
        <mxCell id="Dh_F9QHYfQC5R3xI3WFD-76" style="edgeStyle=orthogonalEdgeStyle;rounded=0;orthogonalLoop=1;jettySize=auto;html=1;exitX=0.5;exitY=1;exitDx=0;exitDy=0;entryX=0.014;entryY=0.617;entryDx=0;entryDy=0;entryPerimeter=0;" edge="1" parent="1" source="Dh_F9QHYfQC5R3xI3WFD-60" target="Dh_F9QHYfQC5R3xI3WFD-75">
          <mxGeometry relative="1" as="geometry">
            <mxPoint x="550" y="400" as="targetPoint" />
          </mxGeometry>
        </mxCell>
        <mxCell id="Dh_F9QHYfQC5R3xI3WFD-60" value="使用HT统计" style="ellipse;whiteSpace=wrap;html=1;" vertex="1" parent="1">
          <mxGeometry x="480" y="270" width="110" height="50" as="geometry" />
        </mxCell>
        <mxCell id="Dh_F9QHYfQC5R3xI3WFD-84" style="edgeStyle=orthogonalEdgeStyle;rounded=0;orthogonalLoop=1;jettySize=auto;html=1;exitX=0.5;exitY=1;exitDx=0;exitDy=0;" edge="1" parent="1" source="Dh_F9QHYfQC5R3xI3WFD-61">
          <mxGeometry relative="1" as="geometry">
            <mxPoint x="685" y="480" as="targetPoint" />
            <Array as="points">
              <mxPoint x="803" y="480" />
            </Array>
          </mxGeometry>
        </mxCell>
        <mxCell id="Dh_F9QHYfQC5R3xI3WFD-96" style="edgeStyle=orthogonalEdgeStyle;rounded=0;orthogonalLoop=1;jettySize=auto;html=1;exitX=1;exitY=0.5;exitDx=0;exitDy=0;" edge="1" parent="1" source="Dh_F9QHYfQC5R3xI3WFD-61" target="Dh_F9QHYfQC5R3xI3WFD-66">
          <mxGeometry relative="1" as="geometry" />
        </mxCell>
        <mxCell id="Dh_F9QHYfQC5R3xI3WFD-61" value="&lt;font style=&quot;font-size: 11px&quot;&gt;HT中统计最大值大于CMS最大值？&lt;/font&gt;" style="rhombus;whiteSpace=wrap;html=1;rounded=1;" vertex="1" parent="1">
          <mxGeometry x="749.5" y="265" width="107" height="80" as="geometry" />
        </mxCell>
        <mxCell id="Dh_F9QHYfQC5R3xI3WFD-90" style="edgeStyle=orthogonalEdgeStyle;rounded=0;orthogonalLoop=1;jettySize=auto;html=1;entryX=1;entryY=0.5;entryDx=0;entryDy=0;" edge="1" parent="1" source="Dh_F9QHYfQC5R3xI3WFD-66" target="Dh_F9QHYfQC5R3xI3WFD-50">
          <mxGeometry relative="1" as="geometry">
            <Array as="points">
              <mxPoint x="954" y="115" />
            </Array>
          </mxGeometry>
        </mxCell>
        <mxCell id="Dh_F9QHYfQC5R3xI3WFD-66" value="抛弃HT最大值以外的所有标签" style="rounded=1;whiteSpace=wrap;html=1;" vertex="1" parent="1">
          <mxGeometry x="894" y="274.99560975609756" width="120" height="60" as="geometry" />
        </mxCell>
        <mxCell id="Dh_F9QHYfQC5R3xI3WFD-97" style="edgeStyle=orthogonalEdgeStyle;rounded=0;orthogonalLoop=1;jettySize=auto;html=1;exitX=0.5;exitY=1;exitDx=0;exitDy=0;" edge="1" parent="1" source="Dh_F9QHYfQC5R3xI3WFD-74">
          <mxGeometry relative="1" as="geometry">
            <mxPoint x="650.8333333333335" y="441.16666666666674" as="targetPoint" />
          </mxGeometry>
        </mxCell>
        <mxCell id="Dh_F9QHYfQC5R3xI3WFD-74" value="全局内存中排序处理" style="rounded=1;whiteSpace=wrap;html=1;" vertex="1" parent="1">
          <mxGeometry x="613" y="265" width="120" height="60" as="geometry" />
        </mxCell>
        <mxCell id="Dh_F9QHYfQC5R3xI3WFD-75" value="结束" style="ellipse;whiteSpace=wrap;html=1;" vertex="1" parent="1">
          <mxGeometry x="613" y="443" width="70" height="60" as="geometry" />
        </mxCell>
        <mxCell id="Dh_F9QHYfQC5R3xI3WFD-77" value="第二轮插入" style="text;html=1;strokeColor=none;fillColor=none;align=center;verticalAlign=middle;whiteSpace=wrap;rounded=0;" vertex="1" parent="1">
          <mxGeometry x="848" y="80" width="73" height="20" as="geometry" />
        </mxCell>
        <mxCell id="Dh_F9QHYfQC5R3xI3WFD-78" value="第一轮插入" style="text;html=1;strokeColor=none;fillColor=none;align=center;verticalAlign=middle;whiteSpace=wrap;rounded=0;" vertex="1" parent="1">
          <mxGeometry x="570" y="60" width="73" height="20" as="geometry" />
        </mxCell>
        <mxCell id="Dh_F9QHYfQC5R3xI3WFD-85" value="Y" style="text;html=1;strokeColor=none;fillColor=none;align=center;verticalAlign=middle;whiteSpace=wrap;rounded=0;" vertex="1" parent="1">
          <mxGeometry x="573" y="170" width="40" height="20" as="geometry" />
        </mxCell>
        <mxCell id="Dh_F9QHYfQC5R3xI3WFD-86" value="Y" style="text;html=1;strokeColor=none;fillColor=none;align=center;verticalAlign=middle;whiteSpace=wrap;rounded=0;" vertex="1" parent="1">
          <mxGeometry x="721" y="175" width="40" height="20" as="geometry" />
        </mxCell>
        <mxCell id="Dh_F9QHYfQC5R3xI3WFD-87" value="N" style="text;html=1;strokeColor=none;fillColor=none;align=center;verticalAlign=middle;whiteSpace=wrap;rounded=0;" vertex="1" parent="1">
          <mxGeometry x="851" y="275" width="40" height="20" as="geometry" />
        </mxCell>
        <mxCell id="Dh_F9QHYfQC5R3xI3WFD-93" style="edgeStyle=orthogonalEdgeStyle;rounded=0;orthogonalLoop=1;jettySize=auto;html=1;exitX=0.5;exitY=1;exitDx=0;exitDy=0;" edge="1" parent="1" source="Dh_F9QHYfQC5R3xI3WFD-89">
          <mxGeometry relative="1" as="geometry">
            <mxPoint x="675.8333333333335" y="259.5" as="targetPoint" />
          </mxGeometry>
        </mxCell>
        <mxCell id="Dh_F9QHYfQC5R3xI3WFD-94" style="edgeStyle=orthogonalEdgeStyle;rounded=0;orthogonalLoop=1;jettySize=auto;html=1;entryX=0;entryY=0.5;entryDx=0;entryDy=0;" edge="1" parent="1" source="Dh_F9QHYfQC5R3xI3WFD-89" target="Dh_F9QHYfQC5R3xI3WFD-59">
          <mxGeometry relative="1" as="geometry" />
        </mxCell>
        <mxCell id="Dh_F9QHYfQC5R3xI3WFD-89" value="第一轮插入？" style="rhombus;whiteSpace=wrap;html=1;" vertex="1" parent="1">
          <mxGeometry x="631" y="170" width="90" height="70" as="geometry" />
        </mxCell>
        <mxCell id="Dh_F9QHYfQC5R3xI3WFD-95" value="Y" style="text;html=1;strokeColor=none;fillColor=none;align=center;verticalAlign=middle;whiteSpace=wrap;rounded=0;" vertex="1" parent="1">
          <mxGeometry x="811" y="362" width="40" height="20" as="geometry" />
        </mxCell>
        <mxCell id="Dh_F9QHYfQC5R3xI3WFD-99" value="" style="ellipse;whiteSpace=wrap;html=1;fillColor=#647687;fontColor=#ffffff;strokeColor=none;" vertex="1" parent="1">
          <mxGeometry x="-224" y="762" width="95" height="61" as="geometry" />
        </mxCell>
        <mxCell id="Dh_F9QHYfQC5R3xI3WFD-147" style="edgeStyle=none;rounded=0;orthogonalLoop=1;jettySize=auto;html=1;exitX=0.5;exitY=0;exitDx=0;exitDy=0;startArrow=none;startFill=0;endArrow=none;endFill=0;strokeColor=#000000;" edge="1" parent="1" source="Dh_F9QHYfQC5R3xI3WFD-100">
          <mxGeometry relative="1" as="geometry">
            <mxPoint x="-194.1428571428571" y="797.4285714285713" as="targetPoint" />
          </mxGeometry>
        </mxCell>
        <mxCell id="Dh_F9QHYfQC5R3xI3WFD-148" style="edgeStyle=none;rounded=0;orthogonalLoop=1;jettySize=auto;html=1;exitX=0.5;exitY=0;exitDx=0;exitDy=0;entryX=0.5;entryY=0;entryDx=0;entryDy=0;startArrow=none;startFill=0;endArrow=none;endFill=0;strokeColor=#000000;" edge="1" parent="1" source="Dh_F9QHYfQC5R3xI3WFD-100" target="Dh_F9QHYfQC5R3xI3WFD-132">
          <mxGeometry relative="1" as="geometry" />
        </mxCell>
        <mxCell id="Dh_F9QHYfQC5R3xI3WFD-100" value="" style="shape=image;html=1;verticalAlign=top;verticalLabelPosition=bottom;labelBackgroundColor=#ffffff;imageAspect=0;aspect=fixed;image=https://cdn4.iconfinder.com/data/icons/essential-app-2/16/record-round-circle-dot-128.png;strokeColor=#000000;" vertex="1" parent="1">
          <mxGeometry x="-206" y="786.5" width="7" height="7" as="geometry" />
        </mxCell>
        <mxCell id="Dh_F9QHYfQC5R3xI3WFD-145" style="edgeStyle=none;rounded=0;orthogonalLoop=1;jettySize=auto;html=1;exitX=0;exitY=0.5;exitDx=0;exitDy=0;entryX=0;entryY=0.75;entryDx=0;entryDy=0;startArrow=none;startFill=0;endArrow=none;endFill=0;strokeColor=#000000;" edge="1" parent="1" source="Dh_F9QHYfQC5R3xI3WFD-103" target="Dh_F9QHYfQC5R3xI3WFD-132">
          <mxGeometry relative="1" as="geometry" />
        </mxCell>
        <mxCell id="Dh_F9QHYfQC5R3xI3WFD-101" value="" style="shape=image;html=1;verticalAlign=top;verticalLabelPosition=bottom;labelBackgroundColor=#ffffff;imageAspect=0;aspect=fixed;image=https://cdn4.iconfinder.com/data/icons/essential-app-2/16/record-round-circle-dot-128.png;strokeColor=#000000;" vertex="1" parent="1">
          <mxGeometry x="-196" y="796.5" width="7" height="7" as="geometry" />
        </mxCell>
        <mxCell id="Dh_F9QHYfQC5R3xI3WFD-142" style="orthogonalLoop=1;jettySize=auto;html=1;exitX=0.5;exitY=0;exitDx=0;exitDy=0;entryX=1;entryY=0.5;entryDx=0;entryDy=0;strokeColor=#000000;rounded=0;startArrow=none;startFill=0;endArrow=none;endFill=0;" edge="1" parent="1" source="Dh_F9QHYfQC5R3xI3WFD-102" target="Dh_F9QHYfQC5R3xI3WFD-104">
          <mxGeometry relative="1" as="geometry" />
        </mxCell>
        <mxCell id="Dh_F9QHYfQC5R3xI3WFD-144" style="edgeStyle=none;rounded=0;orthogonalLoop=1;jettySize=auto;html=1;exitX=0;exitY=0.75;exitDx=0;exitDy=0;entryX=0.5;entryY=0;entryDx=0;entryDy=0;startArrow=none;startFill=0;endArrow=none;endFill=0;strokeColor=#000000;" edge="1" parent="1" source="Dh_F9QHYfQC5R3xI3WFD-102" target="Dh_F9QHYfQC5R3xI3WFD-132">
          <mxGeometry relative="1" as="geometry" />
        </mxCell>
        <mxCell id="Dh_F9QHYfQC5R3xI3WFD-102" value="" style="shape=image;html=1;verticalAlign=top;verticalLabelPosition=bottom;labelBackgroundColor=#ffffff;imageAspect=0;aspect=fixed;image=https://cdn4.iconfinder.com/data/icons/essential-app-2/16/record-round-circle-dot-128.png;strokeColor=#000000;" vertex="1" parent="1">
          <mxGeometry x="-165" y="776" width="7" height="7" as="geometry" />
        </mxCell>
        <mxCell id="Dh_F9QHYfQC5R3xI3WFD-103" value="" style="shape=image;html=1;verticalAlign=top;verticalLabelPosition=bottom;labelBackgroundColor=#ffffff;imageAspect=0;aspect=fixed;image=https://cdn4.iconfinder.com/data/icons/essential-app-2/16/record-round-circle-dot-128.png;strokeColor=#000000;" vertex="1" parent="1">
          <mxGeometry x="-170" y="803.5" width="7" height="7" as="geometry" />
        </mxCell>
        <mxCell id="Dh_F9QHYfQC5R3xI3WFD-143" style="edgeStyle=none;rounded=0;orthogonalLoop=1;jettySize=auto;html=1;exitX=0;exitY=0.5;exitDx=0;exitDy=0;entryX=1;entryY=0.5;entryDx=0;entryDy=0;startArrow=none;startFill=0;endArrow=none;endFill=0;strokeColor=#000000;" edge="1" parent="1" source="Dh_F9QHYfQC5R3xI3WFD-104" target="Dh_F9QHYfQC5R3xI3WFD-103">
          <mxGeometry relative="1" as="geometry" />
        </mxCell>
        <mxCell id="Dh_F9QHYfQC5R3xI3WFD-149" style="edgeStyle=none;rounded=0;orthogonalLoop=1;jettySize=auto;html=1;exitX=0.75;exitY=0;exitDx=0;exitDy=0;entryX=1;entryY=0.5;entryDx=0;entryDy=0;startArrow=none;startFill=0;endArrow=none;endFill=0;strokeColor=#000000;entryPerimeter=0;" edge="1" parent="1" source="Dh_F9QHYfQC5R3xI3WFD-104" target="Dh_F9QHYfQC5R3xI3WFD-121">
          <mxGeometry relative="1" as="geometry" />
        </mxCell>
        <mxCell id="Dh_F9QHYfQC5R3xI3WFD-104" value="" style="shape=image;html=1;verticalAlign=top;verticalLabelPosition=bottom;labelBackgroundColor=#ffffff;imageAspect=0;aspect=fixed;image=https://cdn4.iconfinder.com/data/icons/essential-app-2/16/record-round-circle-dot-128.png;strokeColor=#000000;" vertex="1" parent="1">
          <mxGeometry x="-148" y="798.5" width="7" height="7" as="geometry" />
        </mxCell>
        <mxCell id="Dh_F9QHYfQC5R3xI3WFD-120" value="" style="ellipse;whiteSpace=wrap;html=1;fillColor=#647687;fontColor=#ffffff;strokeColor=none;" vertex="1" parent="1">
          <mxGeometry x="-93" y="764" width="78" height="59" as="geometry" />
        </mxCell>
        <mxCell id="Dh_F9QHYfQC5R3xI3WFD-150" style="edgeStyle=none;rounded=0;orthogonalLoop=1;jettySize=auto;html=1;exitX=1;exitY=0.5;exitDx=0;exitDy=0;entryX=0.25;entryY=0;entryDx=0;entryDy=0;startArrow=none;startFill=0;endArrow=none;endFill=0;strokeColor=#000000;" edge="1" parent="1" source="Dh_F9QHYfQC5R3xI3WFD-121" target="Dh_F9QHYfQC5R3xI3WFD-122">
          <mxGeometry relative="1" as="geometry" />
        </mxCell>
        <mxCell id="Dh_F9QHYfQC5R3xI3WFD-156" style="edgeStyle=none;rounded=0;orthogonalLoop=1;jettySize=auto;html=1;exitX=0.75;exitY=0;exitDx=0;exitDy=0;entryX=0;entryY=0.25;entryDx=0;entryDy=0;startArrow=none;startFill=0;endArrow=none;endFill=0;strokeColor=#000000;" edge="1" parent="1" source="Dh_F9QHYfQC5R3xI3WFD-121" target="Dh_F9QHYfQC5R3xI3WFD-123">
          <mxGeometry relative="1" as="geometry" />
        </mxCell>
        <mxCell id="Dh_F9QHYfQC5R3xI3WFD-121" value="" style="shape=image;html=1;verticalAlign=top;verticalLabelPosition=bottom;labelBackgroundColor=#ffffff;imageAspect=0;aspect=fixed;image=https://cdn4.iconfinder.com/data/icons/essential-app-2/16/record-round-circle-dot-128.png;strokeColor=#000000;" vertex="1" parent="1">
          <mxGeometry x="-91" y="784.5" width="7" height="7" as="geometry" />
        </mxCell>
        <mxCell id="Dh_F9QHYfQC5R3xI3WFD-151" style="edgeStyle=none;rounded=0;orthogonalLoop=1;jettySize=auto;html=1;exitX=1;exitY=0.25;exitDx=0;exitDy=0;entryX=0;entryY=0.5;entryDx=0;entryDy=0;startArrow=none;startFill=0;endArrow=none;endFill=0;strokeColor=#000000;" edge="1" parent="1" source="Dh_F9QHYfQC5R3xI3WFD-122" target="Dh_F9QHYfQC5R3xI3WFD-123">
          <mxGeometry relative="1" as="geometry" />
        </mxCell>
        <mxCell id="Dh_F9QHYfQC5R3xI3WFD-155" style="edgeStyle=none;rounded=0;orthogonalLoop=1;jettySize=auto;html=1;exitX=1;exitY=0.5;exitDx=0;exitDy=0;startArrow=none;startFill=0;endArrow=none;endFill=0;strokeColor=#000000;" edge="1" parent="1" source="Dh_F9QHYfQC5R3xI3WFD-122">
          <mxGeometry relative="1" as="geometry">
            <mxPoint x="-54.14285714285711" y="803.7142857142858" as="targetPoint" />
          </mxGeometry>
        </mxCell>
        <mxCell id="Dh_F9QHYfQC5R3xI3WFD-122" value="" style="shape=image;html=1;verticalAlign=top;verticalLabelPosition=bottom;labelBackgroundColor=#ffffff;imageAspect=0;aspect=fixed;image=https://cdn4.iconfinder.com/data/icons/essential-app-2/16/record-round-circle-dot-128.png;strokeColor=#000000;" vertex="1" parent="1">
          <mxGeometry x="-81" y="794.5" width="7" height="7" as="geometry" />
        </mxCell>
        <mxCell id="Dh_F9QHYfQC5R3xI3WFD-152" style="edgeStyle=none;rounded=0;orthogonalLoop=1;jettySize=auto;html=1;exitX=0.5;exitY=1;exitDx=0;exitDy=0;entryX=0.5;entryY=0;entryDx=0;entryDy=0;startArrow=none;startFill=0;endArrow=none;endFill=0;strokeColor=#000000;" edge="1" parent="1" source="Dh_F9QHYfQC5R3xI3WFD-123" target="Dh_F9QHYfQC5R3xI3WFD-124">
          <mxGeometry relative="1" as="geometry" />
        </mxCell>
        <mxCell id="Dh_F9QHYfQC5R3xI3WFD-153" style="edgeStyle=none;rounded=0;orthogonalLoop=1;jettySize=auto;html=1;exitX=0.5;exitY=0;exitDx=0;exitDy=0;entryX=0.25;entryY=0;entryDx=0;entryDy=0;startArrow=none;startFill=0;endArrow=none;endFill=0;strokeColor=#000000;" edge="1" parent="1" source="Dh_F9QHYfQC5R3xI3WFD-123" target="Dh_F9QHYfQC5R3xI3WFD-125">
          <mxGeometry relative="1" as="geometry" />
        </mxCell>
        <mxCell id="Dh_F9QHYfQC5R3xI3WFD-123" value="" style="shape=image;html=1;verticalAlign=top;verticalLabelPosition=bottom;labelBackgroundColor=#ffffff;imageAspect=0;aspect=fixed;image=https://cdn4.iconfinder.com/data/icons/essential-app-2/16/record-round-circle-dot-128.png;strokeColor=#000000;" vertex="1" parent="1">
          <mxGeometry x="-50" y="774" width="7" height="7" as="geometry" />
        </mxCell>
        <mxCell id="Dh_F9QHYfQC5R3xI3WFD-154" style="edgeStyle=none;rounded=0;orthogonalLoop=1;jettySize=auto;html=1;exitX=0.5;exitY=0;exitDx=0;exitDy=0;startArrow=none;startFill=0;endArrow=none;endFill=0;strokeColor=#000000;" edge="1" parent="1" source="Dh_F9QHYfQC5R3xI3WFD-124">
          <mxGeometry relative="1" as="geometry">
            <mxPoint x="-33" y="801.4285714285713" as="targetPoint" />
          </mxGeometry>
        </mxCell>
        <mxCell id="Dh_F9QHYfQC5R3xI3WFD-124" value="" style="shape=image;html=1;verticalAlign=top;verticalLabelPosition=bottom;labelBackgroundColor=#ffffff;imageAspect=0;aspect=fixed;image=https://cdn4.iconfinder.com/data/icons/essential-app-2/16/record-round-circle-dot-128.png;strokeColor=#000000;" vertex="1" parent="1">
          <mxGeometry x="-55" y="801.5" width="7" height="7" as="geometry" />
        </mxCell>
        <mxCell id="Dh_F9QHYfQC5R3xI3WFD-125" value="" style="shape=image;html=1;verticalAlign=top;verticalLabelPosition=bottom;labelBackgroundColor=#ffffff;imageAspect=0;aspect=fixed;image=https://cdn4.iconfinder.com/data/icons/essential-app-2/16/record-round-circle-dot-128.png;strokeColor=#000000;" vertex="1" parent="1">
          <mxGeometry x="-33" y="796.5" width="7" height="7" as="geometry" />
        </mxCell>
        <mxCell id="Dh_F9QHYfQC5R3xI3WFD-126" value="" style="ellipse;whiteSpace=wrap;html=1;fillColor=#647687;fontColor=#ffffff;strokeColor=none;" vertex="1" parent="1">
          <mxGeometry x="-174" y="835" width="80" height="59" as="geometry" />
        </mxCell>
        <mxCell id="Dh_F9QHYfQC5R3xI3WFD-160" style="edgeStyle=none;rounded=0;orthogonalLoop=1;jettySize=auto;html=1;exitX=0.5;exitY=0;exitDx=0;exitDy=0;entryX=0.5;entryY=0;entryDx=0;entryDy=0;startArrow=none;startFill=0;endArrow=none;endFill=0;strokeColor=#000000;" edge="1" parent="1" source="Dh_F9QHYfQC5R3xI3WFD-127" target="Dh_F9QHYfQC5R3xI3WFD-128">
          <mxGeometry relative="1" as="geometry">
            <Array as="points">
              <mxPoint x="-121" y="874" />
            </Array>
          </mxGeometry>
        </mxCell>
        <mxCell id="Dh_F9QHYfQC5R3xI3WFD-161" style="edgeStyle=none;rounded=0;orthogonalLoop=1;jettySize=auto;html=1;exitX=0.5;exitY=1;exitDx=0;exitDy=0;entryX=0;entryY=0.25;entryDx=0;entryDy=0;startArrow=none;startFill=0;endArrow=none;endFill=0;strokeColor=#000000;" edge="1" parent="1" source="Dh_F9QHYfQC5R3xI3WFD-127" target="Dh_F9QHYfQC5R3xI3WFD-131">
          <mxGeometry relative="1" as="geometry" />
        </mxCell>
        <mxCell id="Dh_F9QHYfQC5R3xI3WFD-162" style="edgeStyle=none;rounded=0;orthogonalLoop=1;jettySize=auto;html=1;exitX=0.5;exitY=1;exitDx=0;exitDy=0;entryX=0;entryY=0.5;entryDx=0;entryDy=0;startArrow=none;startFill=0;endArrow=none;endFill=0;strokeColor=#000000;" edge="1" parent="1" source="Dh_F9QHYfQC5R3xI3WFD-127" target="Dh_F9QHYfQC5R3xI3WFD-128">
          <mxGeometry relative="1" as="geometry" />
        </mxCell>
        <mxCell id="Dh_F9QHYfQC5R3xI3WFD-166" style="edgeStyle=none;rounded=0;orthogonalLoop=1;jettySize=auto;html=1;exitX=0.25;exitY=0;exitDx=0;exitDy=0;entryX=1;entryY=0.5;entryDx=0;entryDy=0;startArrow=none;startFill=0;endArrow=none;endFill=0;strokeColor=#000000;" edge="1" parent="1" source="Dh_F9QHYfQC5R3xI3WFD-127" target="Dh_F9QHYfQC5R3xI3WFD-103">
          <mxGeometry relative="1" as="geometry" />
        </mxCell>
        <mxCell id="Dh_F9QHYfQC5R3xI3WFD-127" value="" style="shape=image;html=1;verticalAlign=top;verticalLabelPosition=bottom;labelBackgroundColor=#ffffff;imageAspect=0;aspect=fixed;image=https://cdn4.iconfinder.com/data/icons/essential-app-2/16/record-round-circle-dot-128.png;strokeColor=#000000;" vertex="1" parent="1">
          <mxGeometry x="-158" y="854.5" width="7" height="7" as="geometry" />
        </mxCell>
        <mxCell id="Dh_F9QHYfQC5R3xI3WFD-128" value="" style="shape=image;html=1;verticalAlign=top;verticalLabelPosition=bottom;labelBackgroundColor=#ffffff;imageAspect=0;aspect=fixed;image=https://cdn4.iconfinder.com/data/icons/essential-app-2/16/record-round-circle-dot-128.png;strokeColor=#000000;" vertex="1" parent="1">
          <mxGeometry x="-148" y="864.5" width="7" height="7" as="geometry" />
        </mxCell>
        <mxCell id="Dh_F9QHYfQC5R3xI3WFD-158" style="edgeStyle=none;rounded=0;orthogonalLoop=1;jettySize=auto;html=1;exitX=0.75;exitY=0;exitDx=0;exitDy=0;entryX=0;entryY=0.5;entryDx=0;entryDy=0;startArrow=none;startFill=0;endArrow=none;endFill=0;strokeColor=#000000;" edge="1" parent="1" source="Dh_F9QHYfQC5R3xI3WFD-129" target="Dh_F9QHYfQC5R3xI3WFD-122">
          <mxGeometry relative="1" as="geometry" />
        </mxCell>
        <mxCell id="Dh_F9QHYfQC5R3xI3WFD-129" value="" style="shape=image;html=1;verticalAlign=top;verticalLabelPosition=bottom;labelBackgroundColor=#ffffff;imageAspect=0;aspect=fixed;image=https://cdn4.iconfinder.com/data/icons/essential-app-2/16/record-round-circle-dot-128.png;strokeColor=#000000;" vertex="1" parent="1">
          <mxGeometry x="-117" y="844" width="7" height="7" as="geometry" />
        </mxCell>
        <mxCell id="Dh_F9QHYfQC5R3xI3WFD-130" value="" style="shape=image;html=1;verticalAlign=top;verticalLabelPosition=bottom;labelBackgroundColor=#ffffff;imageAspect=0;aspect=fixed;image=https://cdn4.iconfinder.com/data/icons/essential-app-2/16/record-round-circle-dot-128.png;strokeColor=#000000;" vertex="1" parent="1">
          <mxGeometry x="-122" y="871.5" width="7" height="7" as="geometry" />
        </mxCell>
        <mxCell id="Dh_F9QHYfQC5R3xI3WFD-159" style="edgeStyle=none;rounded=0;orthogonalLoop=1;jettySize=auto;html=1;exitX=0.25;exitY=0;exitDx=0;exitDy=0;entryX=0.5;entryY=0;entryDx=0;entryDy=0;startArrow=none;startFill=0;endArrow=none;endFill=0;strokeColor=#000000;" edge="1" parent="1" source="Dh_F9QHYfQC5R3xI3WFD-129" target="Dh_F9QHYfQC5R3xI3WFD-130">
          <mxGeometry relative="1" as="geometry" />
        </mxCell>
        <mxCell id="Dh_F9QHYfQC5R3xI3WFD-163" style="edgeStyle=none;rounded=0;orthogonalLoop=1;jettySize=auto;html=1;exitX=1;exitY=0.5;exitDx=0;exitDy=0;startArrow=none;startFill=0;endArrow=none;endFill=0;strokeColor=#000000;" edge="1" parent="1" source="Dh_F9QHYfQC5R3xI3WFD-131">
          <mxGeometry relative="1" as="geometry">
            <mxPoint x="-115.28571428571433" y="847.1428571428571" as="targetPoint" />
          </mxGeometry>
        </mxCell>
        <mxCell id="Dh_F9QHYfQC5R3xI3WFD-164" style="edgeStyle=none;rounded=0;orthogonalLoop=1;jettySize=auto;html=1;exitX=0;exitY=0.5;exitDx=0;exitDy=0;entryX=1;entryY=0.25;entryDx=0;entryDy=0;startArrow=none;startFill=0;endArrow=none;endFill=0;strokeColor=#000000;" edge="1" parent="1" source="Dh_F9QHYfQC5R3xI3WFD-131" target="Dh_F9QHYfQC5R3xI3WFD-128">
          <mxGeometry relative="1" as="geometry" />
        </mxCell>
        <mxCell id="Dh_F9QHYfQC5R3xI3WFD-131" value="" style="shape=image;html=1;verticalAlign=top;verticalLabelPosition=bottom;labelBackgroundColor=#ffffff;imageAspect=0;aspect=fixed;image=https://cdn4.iconfinder.com/data/icons/essential-app-2/16/record-round-circle-dot-128.png;strokeColor=#000000;" vertex="1" parent="1">
          <mxGeometry x="-129" y="856" width="7" height="7" as="geometry" />
        </mxCell>
        <mxCell id="Dh_F9QHYfQC5R3xI3WFD-146" style="edgeStyle=none;rounded=0;orthogonalLoop=1;jettySize=auto;html=1;exitX=0;exitY=0.75;exitDx=0;exitDy=0;entryX=0.5;entryY=0;entryDx=0;entryDy=0;startArrow=none;startFill=0;endArrow=none;endFill=0;strokeColor=#000000;" edge="1" parent="1" source="Dh_F9QHYfQC5R3xI3WFD-132" target="Dh_F9QHYfQC5R3xI3WFD-101">
          <mxGeometry relative="1" as="geometry">
            <Array as="points">
              <mxPoint x="-192" y="797" />
            </Array>
          </mxGeometry>
        </mxCell>
        <mxCell id="Dh_F9QHYfQC5R3xI3WFD-132" value="" style="shape=image;html=1;verticalAlign=top;verticalLabelPosition=bottom;labelBackgroundColor=#ffffff;imageAspect=0;aspect=fixed;image=https://cdn4.iconfinder.com/data/icons/essential-app-2/16/record-round-circle-dot-128.png;strokeColor=#000000;" vertex="1" parent="1">
          <mxGeometry x="-174" y="789.5" width="7" height="7" as="geometry" />
        </mxCell>
        <mxCell id="Dh_F9QHYfQC5R3xI3WFD-167" value="&lt;font style=&quot;font-size: 15px&quot;&gt;10，&amp;nbsp; &amp;nbsp; 2&lt;span style=&quot;color: rgb(51 , 51 , 51) ; font-family: &amp;#34;open sans&amp;#34; , &amp;#34;clear sans&amp;#34; , &amp;#34;helvetica neue&amp;#34; , &amp;#34;helvetica&amp;#34; , &amp;#34;arial&amp;#34; , sans-serif&quot;&gt;，(2，4),(6，3)，-4,12,77&lt;/span&gt;&lt;/font&gt;" style="text;html=1;strokeColor=none;fillColor=none;align=center;verticalAlign=middle;whiteSpace=wrap;rounded=0;" vertex="1" parent="1">
          <mxGeometry x="-376" y="930" width="376" height="20" as="geometry" />
        </mxCell>
        <mxCell id="Dh_F9QHYfQC5R3xI3WFD-168" value="" style="shape=curlyBracket;whiteSpace=wrap;html=1;rounded=1;strokeColor=#000000;direction=north;" vertex="1" parent="1">
          <mxGeometry x="-285.5" y="1018" width="101" height="17" as="geometry" />
        </mxCell>
        <mxCell id="Dh_F9QHYfQC5R3xI3WFD-169" value="" style="shape=curlyBracket;whiteSpace=wrap;html=1;rounded=1;strokeColor=#000000;direction=north;" vertex="1" parent="1">
          <mxGeometry x="-134" y="1002" width="73" height="16" as="geometry" />
        </mxCell>
        <mxCell id="Dh_F9QHYfQC5R3xI3WFD-170" value="&lt;font face=&quot;Times New Roman&quot;&gt;total&lt;/font&gt;" style="text;html=1;strokeColor=none;fillColor=none;align=center;verticalAlign=middle;whiteSpace=wrap;rounded=0;" vertex="1" parent="1">
          <mxGeometry x="-340" y="953" width="58" height="20" as="geometry" />
        </mxCell>
        <mxCell id="Dh_F9QHYfQC5R3xI3WFD-171" value="interval 1" style="text;html=1;strokeColor=none;fillColor=none;align=center;verticalAlign=middle;whiteSpace=wrap;rounded=0;" vertex="1" parent="1">
          <mxGeometry x="-129" y="1027" width="58" height="20" as="geometry" />
        </mxCell>
        <mxCell id="Dh_F9QHYfQC5R3xI3WFD-172" value="&lt;font face=&quot;Times New Roman&quot;&gt;itv_num&lt;/font&gt;" style="text;html=1;strokeColor=none;fillColor=none;align=center;verticalAlign=middle;whiteSpace=wrap;rounded=0;" vertex="1" parent="1">
          <mxGeometry x="-296" y="953" width="58" height="20" as="geometry" />
        </mxCell>
        <mxCell id="Dh_F9QHYfQC5R3xI3WFD-173" value="&lt;font face=&quot;Times New Roman&quot;&gt;itv 0&lt;/font&gt;" style="text;html=1;strokeColor=none;fillColor=none;align=center;verticalAlign=middle;whiteSpace=wrap;rounded=0;" vertex="1" parent="1">
          <mxGeometry x="-242.5" y="953" width="58" height="20" as="geometry" />
        </mxCell>
        <mxCell id="Dh_F9QHYfQC5R3xI3WFD-174" value="&lt;font face=&quot;Times New Roman&quot;&gt;itv 1&lt;/font&gt;" style="text;html=1;strokeColor=none;fillColor=none;align=center;verticalAlign=middle;whiteSpace=wrap;rounded=0;" vertex="1" parent="1">
          <mxGeometry x="-195" y="953" width="57.5" height="20" as="geometry" />
        </mxCell>
        <mxCell id="Dh_F9QHYfQC5R3xI3WFD-175" value="&lt;p&gt;&lt;font face=&quot;Times New Roman&quot;&gt;res0 res1 res 2&lt;/font&gt;&lt;/p&gt;" style="text;html=1;strokeColor=none;fillColor=none;align=center;verticalAlign=middle;whiteSpace=wrap;rounded=0;" vertex="1" parent="1">
          <mxGeometry x="-141.5" y="953" width="93.5" height="20" as="geometry" />
        </mxCell>
      </root>
    </mxGraphModel>
  </diagram>
</mxfile>
